<svg xmlns="http://www.w3.org/2000/svg" viewBox="0 0 1440 900" width="1440" height="900" role="img"><rect x="0" y="0" width="1440" height="900" fill="#F7F8FA"/><rect x="0" y="0" width="1440" height="660" fill="#F1F2F6"/><rect x="0" y="660" width="1440" height="240" fill="#DCDFE7"/><rect x="0" y="657" width="1440" height="3" fill="rgba(0,0,0,.06)"/><rect x="1" y="41" width="78" height="78" fill="rgba(255,255,255,.35)" rx="2"/><rect x="81" y="41" width="78" height="78" fill="rgba(255,255,255,.35)" rx="2"/><rect x="161" y="41" width="78" height="78" fill="rgba(255,255,255,.35)" rx="2"/><rect x="241" y="41" width="78" height="78" fill="rgba(255,255,255,.35)" rx="2"/><rect x="321" y="41" width="78" height="78" fill="rgba(255,255,255,.35)" rx="2"/><rect x="401" y="41" width="78" height="78" fill="rgba(255,255,255,.35)" rx="2"/><rect x="481" y="41" width="78" height="78" fill="rgba(255,255,255,.35)" rx="2"/><rect x="561" y="41" width="78" height="78" fill="rgba(255,255,255,.35)" rx="2"/><rect x="641" y="41" width="78" height="78" fill="rgba(255,255,255,.35)" rx="2"/><rect x="721" y="41" width="78" height="78" fill="rgba(255,255,255,.35)" rx="2"/><rect x="801" y="41" width="78" height="78" fill="rgba(255,255,255,.35)" rx="2"/><rect x="881" y="41" width="78" height="78" fill="rgba(255,255,255,.35)" rx="2"/><rect x="961" y="41" width="78" height="78" fill="rgba(255,255,255,.35)" rx="2"/><rect x="1041" y="41" width="78" height="78" fill="rgba(255,255,255,.35)" rx="2"/><rect x="1121" y="41" width="78" height="78" fill="rgba(255,255,255,.35)" rx="2"/><rect x="1201" y="41" width="78" height="78" fill="rgba(255,255,255,.35)" rx="2"/><rect x="1281" y="41" width="78" height="78" fill="rgba(255,255,255,.35)" rx="2"/><rect x="1361" y="41" width="78" height="78" fill="rgba(255,255,255,.35)" rx="2"/><rect x="1" y="121" width="78" height="78" fill="rgba(255,255,255,.35)" rx="2"/><rect x="81" y="121" width="78" height="78" fill="rgba(255,255,255,.35)" rx="2"/><rect x="161" y="121" width="78" height="78" fill="rgba(255,255,255,.35)" rx="2"/><rect x="241" y="121" width="78" height="78" fill="rgba(255,255,255,.35)" rx="2"/><rect x="321" y="121" width="78" height="78" fill="rgba(255,255,255,.35)" rx="2"/><rect x="401" y="121" width="78" height="78" fill="rgba(255,255,255,.35)" rx="2"/><rect x="481" y="121" width="78" height="78" fill="rgba(255,255,255,.35)" rx="2"/><rect x="561" y="121" width="78" height="78" fill="rgba(255,255,255,.35)" rx="2"/><rect x="641" y="121" width="78" height="78" fill="rgba(255,255,255,.35)" rx="2"/><rect x="721" y="121" width="78" height="78" fill="rgba(255,255,255,.35)" rx="2"/><rect x="801" y="121" width="78" height="78" fill="rgba(255,255,255,.35)" rx="2"/><rect x="881" y="121" width="78" height="78" fill="rgba(255,255,255,.35)" rx="2"/><rect x="961" y="121" width="78" height="78" fill="rgba(255,255,255,.35)" rx="2"/><rect x="1041" y="121" width="78" height="78" fill="rgba(255,255,255,.35)" rx="2"/><rect x="1121" y="121" width="78" height="78" fill="rgba(255,255,255,.35)" rx="2"/><rect x="1201" y="121" width="78" height="78" fill="rgba(255,255,255,.35)" rx="2"/><rect x="1281" y="121" width="78" height="78" fill="rgba(255,255,255,.35)" rx="2"/><rect x="1361" y="121" width="78" height="78" fill="rgba(255,255,255,.35)" rx="2"/><rect x="1" y="201" width="78" height="78" fill="rgba(255,255,255,.35)" rx="2"/><rect x="81" y="201" width="78" height="78" fill="rgba(255,255,255,.35)" rx="2"/><rect x="161" y="201" width="78" height="78" fill="rgba(255,255,255,.35)" rx="2"/><rect x="241" y="201" width="78" height="78" fill="rgba(255,255,255,.35)" rx="2"/><rect x="321" y="201" width="78" height="78" fill="rgba(255,255,255,.35)" rx="2"/><rect x="401" y="201" width="78" height="78" fill="rgba(255,255,255,.35)" rx="2"/><rect x="481" y="201" width="78" height="78" fill="rgba(255,255,255,.35)" rx="2"/><rect x="561" y="201" width="78" height="78" fill="rgba(255,255,255,.35)" rx="2"/><rect x="641" y="201" width="78" height="78" fill="rgba(255,255,255,.35)" rx="2"/><rect x="721" y="201" width="78" height="78" fill="rgba(255,255,255,.35)" rx="2"/><rect x="801" y="201" width="78" height="78" fill="rgba(255,255,255,.35)" rx="2"/><rect x="881" y="201" width="78" height="78" fill="rgba(255,255,255,.35)" rx="2"/><rect x="961" y="201" width="78" height="78" fill="rgba(255,255,255,.35)" rx="2"/><rect x="1041" y="201" width="78" height="78" fill="rgba(255,255,255,.35)" rx="2"/><rect x="1121" y="201" width="78" height="78" fill="rgba(255,255,255,.35)" rx="2"/><rect x="1201" y="201" width="78" height="78" fill="rgba(255,255,255,.35)" rx="2"/><rect x="1281" y="201" width="78" height="78" fill="rgba(255,255,255,.35)" rx="2"/><rect x="1361" y="201" width="78" height="78" fill="rgba(255,255,255,.35)" rx="2"/><rect x="1" y="281" width="78" height="78" fill="rgba(255,255,255,.35)" rx="2"/><rect x="81" y="281" width="78" height="78" fill="rgba(255,255,255,.35)" rx="2"/><rect x="161" y="281" width="78" height="78" fill="rgba(255,255,255,.35)" rx="2"/><rect x="241" y="281" width="78" height="78" fill="rgba(255,255,255,.35)" rx="2"/><rect x="321" y="281" width="78" height="78" fill="rgba(255,255,255,.35)" rx="2"/><rect x="401" y="281" width="78" height="78" fill="rgba(255,255,255,.35)" rx="2"/><rect x="481" y="281" width="78" height="78" fill="rgba(255,255,255,.35)" rx="2"/><rect x="561" y="281" width="78" height="78" fill="rgba(255,255,255,.35)" rx="2"/><rect x="641" y="281" width="78" height="78" fill="rgba(255,255,255,.35)" rx="2"/><rect x="721" y="281" width="78" height="78" fill="rgba(255,255,255,.35)" rx="2"/><rect x="801" y="281" width="78" height="78" fill="rgba(255,255,255,.35)" rx="2"/><rect x="881" y="281" width="78" height="78" fill="rgba(255,255,255,.35)" rx="2"/><rect x="961" y="281" width="78" height="78" fill="rgba(255,255,255,.35)" rx="2"/><rect x="1041" y="281" width="78" height="78" fill="rgba(255,255,255,.35)" rx="2"/><rect x="1121" y="281" width="78" height="78" fill="rgba(255,255,255,.35)" rx="2"/><rect x="1201" y="281" width="78" height="78" fill="rgba(255,255,255,.35)" rx="2"/><rect x="1281" y="281" width="78" height="78" fill="rgba(255,255,255,.35)" rx="2"/><rect x="1361" y="281" width="78" height="78" fill="rgba(255,255,255,.35)" rx="2"/><rect x="1" y="361" width="78" height="78" fill="rgba(255,255,255,.35)" rx="2"/><rect x="81" y="361" width="78" height="78" fill="rgba(255,255,255,.35)" rx="2"/><rect x="161" y="361" width="78" height="78" fill="rgba(255,255,255,.35)" rx="2"/><rect x="241" y="361" width="78" height="78" fill="rgba(255,255,255,.35)" rx="2"/><rect x="321" y="361" width="78" height="78" fill="rgba(255,255,255,.35)" rx="2"/><rect x="401" y="361" width="78" height="78" fill="rgba(255,255,255,.35)" rx="2"/><rect x="481" y="361" width="78" height="78" fill="rgba(255,255,255,.35)" rx="2"/><rect x="561" y="361" width="78" height="78" fill="rgba(255,255,255,.35)" rx="2"/><rect x="641" y="361" width="78" height="78" fill="rgba(255,255,255,.35)" rx="2"/><rect x="721" y="361" width="78" height="78" fill="rgba(255,255,255,.35)" rx="2"/><rect x="801" y="361" width="78" height="78" fill="rgba(255,255,255,.35)" rx="2"/><rect x="881" y="361" width="78" height="78" fill="rgba(255,255,255,.35)" rx="2"/><rect x="961" y="361" width="78" height="78" fill="rgba(255,255,255,.35)" rx="2"/><rect x="1041" y="361" width="78" height="78" fill="rgba(255,255,255,.35)" rx="2"/><rect x="1121" y="361" width="78" height="78" fill="rgba(255,255,255,.35)" rx="2"/><rect x="1201" y="361" width="78" height="78" fill="rgba(255,255,255,.35)" rx="2"/><rect x="1281" y="361" width="78" height="78" fill="rgba(255,255,255,.35)" rx="2"/><rect x="1361" y="361" width="78" height="78" fill="rgba(255,255,255,.35)" rx="2"/><rect x="1" y="441" width="78" height="78" fill="rgba(255,255,255,.35)" rx="2"/><rect x="81" y="441" width="78" height="78" fill="rgba(255,255,255,.35)" rx="2"/><rect x="161" y="441" width="78" height="78" fill="rgba(255,255,255,.35)" rx="2"/><rect x="241" y="441" width="78" height="78" fill="rgba(255,255,255,.35)" rx="2"/><rect x="321" y="441" width="78" height="78" fill="rgba(255,255,255,.35)" rx="2"/><rect x="401" y="441" width="78" height="78" fill="rgba(255,255,255,.35)" rx="2"/><rect x="481" y="441" width="78" height="78" fill="rgba(255,255,255,.35)" rx="2"/><rect x="561" y="441" width="78" height="78" fill="rgba(255,255,255,.35)" rx="2"/><rect x="641" y="441" width="78" height="78" fill="rgba(255,255,255,.35)" rx="2"/><rect x="721" y="441" width="78" height="78" fill="rgba(255,255,255,.35)" rx="2"/><rect x="801" y="441" width="78" height="78" fill="rgba(255,255,255,.35)" rx="2"/><rect x="881" y="441" width="78" height="78" fill="rgba(255,255,255,.35)" rx="2"/><rect x="961" y="441" width="78" height="78" fill="rgba(255,255,255,.35)" rx="2"/><rect x="1041" y="441" width="78" height="78" fill="rgba(255,255,255,.35)" rx="2"/><rect x="1121" y="441" width="78" height="78" fill="rgba(255,255,255,.35)" rx="2"/><rect x="1201" y="441" width="78" height="78" fill="rgba(255,255,255,.35)" rx="2"/><rect x="1281" y="441" width="78" height="78" fill="rgba(255,255,255,.35)" rx="2"/><rect x="1361" y="441" width="78" height="78" fill="rgba(255,255,255,.35)" rx="2"/><rect x="1" y="521" width="78" height="78" fill="rgba(255,255,255,.35)" rx="2"/><rect x="81" y="521" width="78" height="78" fill="rgba(255,255,255,.35)" rx="2"/><rect x="161" y="521" width="78" height="78" fill="rgba(255,255,255,.35)" rx="2"/><rect x="241" y="521" width="78" height="78" fill="rgba(255,255,255,.35)" rx="2"/><rect x="321" y="521" width="78" height="78" fill="rgba(255,255,255,.35)" rx="2"/><rect x="401" y="521" width="78" height="78" fill="rgba(255,255,255,.35)" rx="2"/><rect x="481" y="521" width="78" height="78" fill="rgba(255,255,255,.35)" rx="2"/><rect x="561" y="521" width="78" height="78" fill="rgba(255,255,255,.35)" rx="2"/><rect x="641" y="521" width="78" height="78" fill="rgba(255,255,255,.35)" rx="2"/><rect x="721" y="521" width="78" height="78" fill="rgba(255,255,255,.35)" rx="2"/><rect x="801" y="521" width="78" height="78" fill="rgba(255,255,255,.35)" rx="2"/><rect x="881" y="521" width="78" height="78" fill="rgba(255,255,255,.35)" rx="2"/><rect x="961" y="521" width="78" height="78" fill="rgba(255,255,255,.35)" rx="2"/><rect x="1041" y="521" width="78" height="78" fill="rgba(255,255,255,.35)" rx="2"/><rect x="1121" y="521" width="78" height="78" fill="rgba(255,255,255,.35)" rx="2"/><rect x="1201" y="521" width="78" height="78" fill="rgba(255,255,255,.35)" rx="2"/><rect x="1281" y="521" width="78" height="78" fill="rgba(255,255,255,.35)" rx="2"/><rect x="1361" y="521" width="78" height="78" fill="rgba(255,255,255,.35)" rx="2"/><rect x="1" y="601" width="78" height="78" fill="rgba(255,255,255,.35)" rx="2"/><rect x="81" y="601" width="78" height="78" fill="rgba(255,255,255,.35)" rx="2"/><rect x="161" y="601" width="78" height="78" fill="rgba(255,255,255,.35)" rx="2"/><rect x="241" y="601" width="78" height="78" fill="rgba(255,255,255,.35)" rx="2"/><rect x="321" y="601" width="78" height="78" fill="rgba(255,255,255,.35)" rx="2"/><rect x="401" y="601" width="78" height="78" fill="rgba(255,255,255,.35)" rx="2"/><rect x="481" y="601" width="78" height="78" fill="rgba(255,255,255,.35)" rx="2"/><rect x="561" y="601" width="78" height="78" fill="rgba(255,255,255,.35)" rx="2"/><rect x="641" y="601" width="78" height="78" fill="rgba(255,255,255,.35)" rx="2"/><rect x="721" y="601" width="78" height="78" fill="rgba(255,255,255,.35)" rx="2"/><rect x="801" y="601" width="78" height="78" fill="rgba(255,255,255,.35)" rx="2"/><rect x="881" y="601" width="78" height="78" fill="rgba(255,255,255,.35)" rx="2"/><rect x="961" y="601" width="78" height="78" fill="rgba(255,255,255,.35)" rx="2"/><rect x="1041" y="601" width="78" height="78" fill="rgba(255,255,255,.35)" rx="2"/><rect x="1121" y="601" width="78" height="78" fill="rgba(255,255,255,.35)" rx="2"/><rect x="1201" y="601" width="78" height="78" fill="rgba(255,255,255,.35)" rx="2"/><rect x="1281" y="601" width="78" height="78" fill="rgba(255,255,255,.35)" rx="2"/><rect x="1361" y="601" width="78" height="78" fill="rgba(255,255,255,.35)" rx="2"/><g transform="translate(150,640)"><rect x="0" y="-52" width="270" height="52" fill="#969CAA" rx="6"/><rect x="24" y="-250" width="222" height="198" fill="#B7BCC8" rx="10"/><circle cx="135" cy="-152" r="80" fill="#CFD3DC"/><circle cx="135" cy="-152" r="62" fill="#FFFFFF"/><circle cx="135" cy="-152" r="13" fill="#969CAA"/><rect x="242" y="-190" width="54" height="18" fill="#2A2A31" rx="5"/></g><g transform="translate(560,640)"><rect x="0" y="-150" width="330" height="150" fill="#B7BCC8" rx="10"/><rect x="20" y="-136" width="290" height="74" fill="#55555F" rx="6"/><rect x="20" y="-52" width="180" height="22" fill="#969CAA" rx="5"/></g><g transform="translate(990,640)"><rect x="0" y="-34" width="280" height="34" fill="#969CAA" rx="6"/><rect x="24" y="-152" width="232" height="118" fill="#B7BCC8" rx="8"/><rect x="50" y="-132" width="180" height="66" fill="#F2D9AE" rx="5"/></g><rect x="60" y="640" width="1320" height="26" fill="#B7BCC8" rx="5"/><rect x="96" y="666" width="24" height="234" fill="#969CAA"/><rect x="1320" y="666" width="24" height="234" fill="#969CAA"/></svg>
