<svg xmlns="http://www.w3.org/2000/svg" viewBox="0 0 1440 900" width="1440" height="900" role="img"><rect x="0" y="0" width="1440" height="900" fill="#EDE6DF"/><rect x="0" y="0" width="1440" height="720" fill="#DCD1C7"/><rect x="0" y="720" width="1440" height="180" fill="#C7BBB0"/><rect x="0" y="717" width="1440" height="3" fill="rgba(0,0,0,.06)"/><rect x="150" y="640" width="118" height="80" fill="#ABA098" rx="9"/><rect x="310" y="538" width="118" height="182" fill="#ABA098" rx="9"/><rect x="470" y="436" width="118" height="284" fill="#ABA098" rx="9"/><rect x="630" y="334" width="118" height="386" fill="#ABA098" rx="9"/><rect x="790" y="232" width="118" height="488" fill="#6B2436" rx="9"/><path d="M130,490 L320,414 L510,336 L700,236 L880,128 L916,192 L716,306 L520,412 L336,492 L160,556 Z" fill="#8C3A4C"/><path d="M862,94 L960,110 L928,200 Z" fill="#8C3A4C"/><g transform="translate(1080,270)"><rect x="0" y="0" width="290" height="520" fill="#332C2A" rx="32"/><rect x="16" y="40" width="258" height="442" fill="#F8F4F0" rx="14"/><rect x="44" y="80" width="202" height="124" fill="#E4DAD1" rx="9"/><rect x="44" y="230" width="202" height="22" fill="#ABA098" rx="7"/><rect x="44" y="274" width="134" height="22" fill="#ABA098" rx="7"/><rect x="44" y="336" width="202" height="66" fill="#6B2436" rx="14"/></g></svg>
