<svg xmlns="http://www.w3.org/2000/svg" viewBox="0 0 1440 900" width="1440" height="900" role="img"><defs><linearGradient id="gTop" x1="0" y1="0" x2="0" y2="1"><stop offset="0" stop-color="#FFFFFF" stop-opacity=".30"/><stop offset=".48" stop-color="#FFFFFF" stop-opacity="0"/></linearGradient><linearGradient id="gBot" x1="0" y1="0" x2="0" y2="1"><stop offset=".55" stop-color="#3A2C24" stop-opacity="0"/><stop offset="1" stop-color="#3A2C24" stop-opacity=".13"/></linearGradient><radialGradient id="gVig" cx=".5" cy=".46" r=".75"><stop offset=".62" stop-color="#3A2C24" stop-opacity="0"/><stop offset="1" stop-color="#3A2C24" stop-opacity=".10"/></radialGradient></defs><rect x="0" y="0" width="1440" height="900" fill="#EDE6DF"/><rect x="0" y="0" width="1440" height="680" fill="#DCD1C7"/><rect x="0" y="680" width="1440" height="220" fill="#C7BBB0"/><rect x="0" y="677" width="1440" height="3" fill="rgba(0,0,0,.06)"/><g transform="translate(60,270)"><rect x="0" y="0" width="640" height="330" fill="#F8F4F0" rx="10"/><rect x="0" y="0" width="640" height="34" fill="#ABA098" rx="8"/><rect x="520" y="60" width="110" height="230" fill="#E4DAD1" rx="6"/><rect x="576" y="60" width="8" height="230" fill="#C6BDB5"/><path d="M640,90 L790,90 L850,180 L850,330 L640,330 Z" fill="#6B2436"/><path d="M676,116 L784,116 L818,180 L676,180 Z" fill="#F8F4F0"/><rect x="0" y="330" width="850" height="26" fill="#574D49" rx="4"/><circle cx="170" cy="384" r="44" fill="#332C2A"/><circle cx="170" cy="384" r="18" fill="#ABA098"/><circle cx="746" cy="384" r="44" fill="#332C2A"/><circle cx="746" cy="384" r="18" fill="#ABA098"/></g><g transform="translate(1020,680)"><rect x="0" y="-98" width="150" height="98" fill="#9C7048" rx="3"/><rect x="0" y="-98" width="27" height="98" fill="rgba(255,255,255,.22)" rx="3"/><rect x="108" y="-98" width="42.00000000000001" height="98" fill="rgba(58,44,36,.12)" rx="3"/><rect x="27" y="-64.68" width="96" height="8" fill="rgba(255,255,255,.28)" rx="2"/><rect x="160" y="-98" width="150" height="98" fill="#B98A57" rx="3"/><rect x="160" y="-98" width="27" height="98" fill="rgba(255,255,255,.22)" rx="3"/><rect x="268" y="-98" width="42.00000000000001" height="98" fill="rgba(58,44,36,.12)" rx="3"/><rect x="187" y="-64.68" width="96" height="8" fill="rgba(255,255,255,.28)" rx="2"/><rect x="0" y="-202" width="150" height="98" fill="#9C7048" rx="3"/><rect x="0" y="-202" width="27" height="98" fill="rgba(255,255,255,.22)" rx="3"/><rect x="108" y="-202" width="42.00000000000001" height="98" fill="rgba(58,44,36,.12)" rx="3"/><rect x="27" y="-168.68" width="96" height="8" fill="rgba(255,255,255,.28)" rx="2"/><rect x="160" y="-202" width="150" height="98" fill="#B98A57" rx="3"/><rect x="160" y="-202" width="27" height="98" fill="rgba(255,255,255,.22)" rx="3"/><rect x="268" y="-202" width="42.00000000000001" height="98" fill="rgba(58,44,36,.12)" rx="3"/><rect x="187" y="-168.68" width="96" height="8" fill="rgba(255,255,255,.28)" rx="2"/><rect x="0" y="-306" width="150" height="98" fill="#9C7048" rx="3"/><rect x="0" y="-306" width="27" height="98" fill="rgba(255,255,255,.22)" rx="3"/><rect x="108" y="-306" width="42.00000000000001" height="98" fill="rgba(58,44,36,.12)" rx="3"/><rect x="27" y="-272.68" width="96" height="8" fill="rgba(255,255,255,.28)" rx="2"/><rect x="160" y="-306" width="150" height="98" fill="#B98A57" rx="3"/><rect x="160" y="-306" width="27" height="98" fill="rgba(255,255,255,.22)" rx="3"/><rect x="268" y="-306" width="42.00000000000001" height="98" fill="rgba(58,44,36,.12)" rx="3"/><rect x="187" y="-272.68" width="96" height="8" fill="rgba(255,255,255,.28)" rx="2"/></g><g transform="translate(1330,448)"><rect x="0" y="-16" width="18" height="220" fill="#8E847D" rx="5"/><rect x="0" y="196" width="170" height="18" fill="#8E847D" rx="5"/><circle cx="32" cy="228" r="24" fill="#332C2A"/><circle cx="144" cy="228" r="24" fill="#332C2A"/></g><rect x="0" y="0" width="1440" height="900" fill="url(#gTop)"/><rect x="0" y="0" width="1440" height="900" fill="url(#gBot)"/><rect x="0" y="0" width="1440" height="900" fill="url(#gVig)"/></svg>
