<svg xmlns="http://www.w3.org/2000/svg" viewBox="0 0 1200 840" width="1200" height="840" role="img"><rect x="0" y="0" width="1200" height="840" fill="#EDE6DF"/><rect x="0" y="0" width="1200" height="554.4" fill="#DCD1C7"/><rect x="0" y="554.4" width="1200" height="285.6" fill="#E4DAD1"/><rect x="0" y="551.4" width="1200" height="3" fill="rgba(0,0,0,.06)"/><rect x="0" y="554.4" width="1200" height="14" fill="#9C7048"/><g transform="translate(110,200)"><rect x="0" y="320" width="330" height="34" fill="#8E847D" rx="12"/><rect x="125" y="250" width="80" height="70" fill="#ABA098" rx="8"/><rect x="-12" y="214" width="354" height="40" fill="#C6BDB5" rx="12"/><circle cx="165" cy="118" r="96" fill="#ABA098"/><circle cx="165" cy="118" r="80" fill="#FFFFFF"/><rect x="161" y="50" width="8" height="68" fill="#6B2436" rx="4"/><circle cx="165" cy="118" r="10" fill="#332C2A"/></g><ellipse cx="275" cy="400" rx="104" ry="30" fill="#A94A50"/><ellipse cx="250" cy="386" rx="52" ry="16" fill="#C2707A"/><g transform="translate(620,510)"><rect x="0" y="0" width="500" height="44" fill="#B98A57" rx="10"/><rect x="0" y="0" width="500" height="10" fill="rgba(255,255,255,.22)" rx="8"/><rect x="500" y="10" width="34" height="16" fill="#9C7048" rx="6"/></g><ellipse cx="760" cy="486" rx="112" ry="48" fill="#A94A50"/><ellipse cx="726" cy="464" rx="54" ry="22" fill="#C2707A"/><g transform="translate(884,480)"><rect x="0" y="0" width="66" height="12" fill="#8C807A" rx="6"/><path d="M66,6 L96,-12 L96,24 Z" fill="#8C807A"/></g><ellipse cx="1046" cy="490" rx="72" ry="34" fill="#A94A50"/><ellipse cx="1026" cy="474" rx="34" ry="15" fill="#C2707A"/><ellipse cx="700" cy="560" rx="22" ry="9" fill="#E4DAD1"/><ellipse cx="746" cy="570" rx="22" ry="9" fill="#E4DAD1"/><ellipse cx="792" cy="560" rx="22" ry="9" fill="#E4DAD1"/><g transform="translate(250,626)"><path d="M0,0 L206,-44 L222,-12 L16,32 Z" fill="#C6BDB5"/><path d="M0,0 L206,-44 L210,-36 L2,8 Z" fill="#F8F4F0"/><rect x="-78" y="6" width="82" height="26" fill="#9C7048" rx="7"/></g></svg>
