<svg xmlns="http://www.w3.org/2000/svg" viewBox="0 0 1200 840" width="1200" height="840" role="img"><rect x="0" y="0" width="1200" height="840" fill="#EDE6DF"/><rect x="0" y="0" width="1200" height="554.4" fill="#DCD1C7"/><rect x="0" y="554.4" width="1200" height="285.6" fill="#E4DAD1"/><rect x="0" y="551.4" width="1200" height="3" fill="rgba(0,0,0,.06)"/><rect x="0" y="554.4" width="1200" height="14" fill="#9C7048"/><rect x="200" y="520" width="92" height="60" fill="#ABA098" rx="10"/><rect x="330" y="446" width="92" height="134" fill="#ABA098" rx="10"/><rect x="460" y="372" width="92" height="208" fill="#ABA098" rx="10"/><rect x="590" y="298" width="92" height="282" fill="#A95566" rx="10"/><rect x="720" y="224" width="92" height="356" fill="#6B2436" rx="10"/><rect x="160" y="300" width="800" height="8" fill="#8C807A" rx="4"/><rect x="160" y="296" width="44" height="16" fill="#EDE6DF" rx="3"/><rect x="244" y="296" width="44" height="16" fill="#EDE6DF" rx="3"/><rect x="328" y="296" width="44" height="16" fill="#EDE6DF" rx="3"/><rect x="412" y="296" width="44" height="16" fill="#EDE6DF" rx="3"/><rect x="496" y="296" width="44" height="16" fill="#EDE6DF" rx="3"/><rect x="580" y="296" width="44" height="16" fill="#EDE6DF" rx="3"/><rect x="664" y="296" width="44" height="16" fill="#EDE6DF" rx="3"/><rect x="748" y="296" width="44" height="16" fill="#EDE6DF" rx="3"/><rect x="832" y="296" width="44" height="16" fill="#EDE6DF" rx="3"/><rect x="916" y="296" width="44" height="16" fill="#EDE6DF" rx="3"/><ellipse cx="980" cy="600" rx="56" ry="18" fill="#9C7048"/><ellipse cx="980" cy="578" rx="56" ry="18" fill="#B98A57"/><ellipse cx="980" cy="556" rx="56" ry="18" fill="#9C7048"/></svg>
