<svg xmlns="http://www.w3.org/2000/svg" viewBox="0 0 1200 840" width="1200" height="840" role="img"><rect x="0" y="0" width="1200" height="840" fill="#F7F8FA"/><rect x="0" y="0" width="1200" height="554.4" fill="#F1F2F6"/><rect x="0" y="554.4" width="1200" height="285.6" fill="#EDEFF4"/><rect x="0" y="551.4" width="1200" height="3" fill="rgba(0,0,0,.06)"/><rect x="0" y="554.4" width="1200" height="14" fill="#A87749"/><g transform="translate(60,140)"><rect x="0" y="0" width="280" height="200" fill="#FFFFFF" rx="16"/><rect x="30" y="40" width="220" height="15" fill="#B7BCC8" rx="6"/><rect x="30" y="86" width="150" height="15" fill="#B7BCC8" rx="6"/><rect x="30" y="132" width="220" height="15" fill="#B7BCC8" rx="6"/></g><path d="M370,230 L420,230 L420,214 L462,242 L420,270 L420,254 L370,254 Z" fill="#6B2436"/><ellipse cx="600" cy="556" rx="68" ry="10.88" fill="rgba(51,44,42,.13)"/><g transform="translate(600,554) scale(1)"><path d="M-36,-130 L-32,-6 L-4,-6 L-4,-130 Z" fill="#2A2A31"/><path d="M4,-130 L4,-6 L32,-6 L36,-130 Z" fill="#2A2A31"/><rect x="-38" y="-8" width="38" height="8" fill="#2A2A31"/><rect x="2" y="-8" width="38" height="8" fill="#2A2A31"/><path d="M-44,-222 C-44,-246 -22,-256 0,-256 C22,-256 44,-246 44,-222 L48,-120 L-48,-120 Z" fill="#FFFFFF"/><path d="M-46,-212 L-56,-168 L-8,-152 L44,-160 L48,-178 L0,-176 L-30,-190 Z" fill="#FFFFFF"/><rect x="-11" y="-272" width="22" height="22" fill="#55555F"/><circle cx="0" cy="-286" r="27" fill="#55555F"/><path d="M-30,-244 L30,-244 L38,-126 L-38,-126 Z" fill="#6B2436"/><path d="M-18,-250 L-12,-236 L12,-236 L18,-250 L6,-252 L0,-242 L-6,-252 Z" fill="#6B2436"/><path d="M10,-256 C26,-254 44,-244 44,-222 L48,-120 L38,-126 L30,-244 Z" fill="rgba(58,44,36,.13)"/><path d="M12,-130 L12,-6 L32,-6 L36,-130 Z" fill="rgba(58,44,36,.10)"/><ellipse cx="0" cy="-262" rx="13" ry="5" fill="rgba(58,44,36,.16)"/></g><path d="M740,230 L790,230 L790,214 L832,242 L790,270 L790,254 L740,254 Z" fill="#6B2436"/><g transform="translate(870,120)"><rect x="0" y="0" width="170" height="110" fill="#E5E7EE"/><rect x="0" y="0" width="170" height="22" fill="#6B2436"/><rect x="24" y="44" width="122" height="50" fill="#FFFFFF" rx="4"/></g><g transform="translate(870,280)"><rect x="0" y="0" width="170" height="110" fill="#E5E7EE"/><rect x="0" y="0" width="170" height="22" fill="#6B2436"/><rect x="24" y="44" width="122" height="50" fill="#FFFFFF" rx="4"/></g><g transform="translate(870,440)"><rect x="0" y="0" width="170" height="110" fill="#E5E7EE"/><rect x="0" y="0" width="170" height="22" fill="#6B2436"/><rect x="24" y="44" width="122" height="50" fill="#FFFFFF" rx="4"/></g></svg>
