<svg xmlns="http://www.w3.org/2000/svg" viewBox="0 0 1200 840" width="1200" height="840" role="img"><defs><linearGradient id="gTop" x1="0" y1="0" x2="0" y2="1"><stop offset="0" stop-color="#FFFFFF" stop-opacity=".30"/><stop offset=".48" stop-color="#FFFFFF" stop-opacity="0"/></linearGradient><linearGradient id="gBot" x1="0" y1="0" x2="0" y2="1"><stop offset=".55" stop-color="#3A2C24" stop-opacity="0"/><stop offset="1" stop-color="#3A2C24" stop-opacity=".13"/></linearGradient><radialGradient id="gVig" cx=".5" cy=".46" r=".75"><stop offset=".62" stop-color="#3A2C24" stop-opacity="0"/><stop offset="1" stop-color="#3A2C24" stop-opacity=".10"/></radialGradient></defs><rect x="0" y="0" width="1200" height="840" fill="#EDE6DF"/><rect x="0" y="0" width="1200" height="554.4" fill="#DCD1C7"/><rect x="0" y="554.4" width="1200" height="285.6" fill="#E4DAD1"/><rect x="0" y="551.4" width="1200" height="3" fill="rgba(0,0,0,.06)"/><rect x="0" y="554.4" width="1200" height="14" fill="#9C7048"/><g transform="translate(220,130)"><rect x="0" y="0" width="760" height="74" fill="#FFFFFF" rx="12"/><rect x="28" y="28" width="30" height="18" fill="#6B2436" rx="5"/><rect x="80" y="30" width="200" height="14" fill="#ABA098" rx="6"/><rect x="520" y="26" width="200" height="22" fill="#E4DAD1" rx="7"/><rect x="560" y="32" width="120" height="10" fill="#8C807A" rx="5"/></g><g transform="translate(220,226)"><rect x="0" y="0" width="760" height="74" fill="#FFFFFF" rx="12"/><rect x="28" y="28" width="30" height="18" fill="#6B2436" rx="5"/><rect x="80" y="30" width="160" height="14" fill="#ABA098" rx="6"/><rect x="520" y="26" width="200" height="22" fill="#E4DAD1" rx="7"/><rect x="560" y="32" width="120" height="10" fill="#8C807A" rx="5"/></g><g transform="translate(220,322)"><rect x="0" y="0" width="760" height="74" fill="#FFFFFF" rx="12"/><rect x="28" y="28" width="30" height="18" fill="#6B2436" rx="5"/><rect x="80" y="30" width="120" height="14" fill="#ABA098" rx="6"/><rect x="520" y="26" width="200" height="22" fill="#E4DAD1" rx="7"/><rect x="560" y="32" width="120" height="10" fill="#8C807A" rx="5"/></g><g transform="translate(220,418)"><rect x="0" y="0" width="760" height="74" fill="#FFFFFF" rx="12"/><rect x="28" y="28" width="30" height="18" fill="#6B2436" rx="5"/><rect x="80" y="30" width="200" height="14" fill="#ABA098" rx="6"/><rect x="520" y="26" width="200" height="22" fill="#E4DAD1" rx="7"/><rect x="560" y="32" width="120" height="10" fill="#8C807A" rx="5"/></g><g transform="translate(220,514)"><rect x="0" y="0" width="760" height="74" fill="#FFFFFF" rx="12"/><rect x="28" y="28" width="30" height="18" fill="#E4DAD1" rx="5"/><rect x="80" y="30" width="160" height="14" fill="#ABA098" rx="6"/><rect x="520" y="26" width="200" height="22" fill="#F8F4F0" rx="7"/></g><g transform="translate(220,610)"><rect x="0" y="0" width="760" height="74" fill="#FFFFFF" rx="12"/><rect x="28" y="28" width="30" height="18" fill="#E4DAD1" rx="5"/><rect x="80" y="30" width="120" height="14" fill="#ABA098" rx="6"/><rect x="520" y="26" width="200" height="22" fill="#F8F4F0" rx="7"/></g><rect x="0" y="0" width="1200" height="840" fill="url(#gTop)"/><rect x="0" y="0" width="1200" height="840" fill="url(#gBot)"/><rect x="0" y="0" width="1200" height="840" fill="url(#gVig)"/></svg>
