<svg xmlns="http://www.w3.org/2000/svg" viewBox="0 0 1200 840" width="1200" height="840" role="img"><defs><linearGradient id="gTop" x1="0" y1="0" x2="0" y2="1"><stop offset="0" stop-color="#FFFFFF" stop-opacity=".30"/><stop offset=".48" stop-color="#FFFFFF" stop-opacity="0"/></linearGradient><linearGradient id="gBot" x1="0" y1="0" x2="0" y2="1"><stop offset=".55" stop-color="#3A2C24" stop-opacity="0"/><stop offset="1" stop-color="#3A2C24" stop-opacity=".13"/></linearGradient><radialGradient id="gVig" cx=".5" cy=".46" r=".75"><stop offset=".62" stop-color="#3A2C24" stop-opacity="0"/><stop offset="1" stop-color="#3A2C24" stop-opacity=".10"/></radialGradient></defs><rect x="0" y="0" width="1200" height="840" fill="#EDE6DF"/><rect x="0" y="0" width="1200" height="554.4" fill="#DCD1C7"/><rect x="0" y="554.4" width="1200" height="285.6" fill="#E4DAD1"/><rect x="0" y="551.4" width="1200" height="3" fill="rgba(0,0,0,.06)"/><rect x="0" y="554.4" width="1200" height="14" fill="#9C7048"/><g transform="translate(170,290)"><rect x="0" y="0" width="260" height="330" fill="#332C2A" rx="18"/><rect x="22" y="24" width="216" height="66" fill="#F8F4F0" rx="8"/><rect x="22" y="112" width="60" height="40" fill="#8E847D" rx="8"/><rect x="98" y="112" width="60" height="40" fill="#8E847D" rx="8"/><rect x="174" y="112" width="60" height="40" fill="#8E847D" rx="8"/><rect x="22" y="164" width="60" height="40" fill="#8E847D" rx="8"/><rect x="98" y="164" width="60" height="40" fill="#8E847D" rx="8"/><rect x="174" y="164" width="60" height="40" fill="#8E847D" rx="8"/><rect x="22" y="216" width="60" height="40" fill="#8E847D" rx="8"/><rect x="98" y="216" width="60" height="40" fill="#8E847D" rx="8"/><rect x="174" y="216" width="60" height="40" fill="#8E847D" rx="8"/><rect x="22" y="268" width="60" height="40" fill="#8E847D" rx="8"/><rect x="98" y="268" width="60" height="40" fill="#8E847D" rx="8"/><rect x="174" y="268" width="60" height="40" fill="#6B2436" rx="8"/></g><g transform="translate(540,300)"><rect x="0" y="0" width="300" height="220" fill="#FFFFFF" rx="10"/><rect x="28" y="32" width="180" height="10" fill="#E4DAD1" rx="5"/><rect x="28" y="66" width="120" height="10" fill="#E4DAD1" rx="5"/><rect x="28" y="100" width="180" height="10" fill="#E4DAD1" rx="5"/><rect x="28" y="134" width="120" height="10" fill="#E4DAD1" rx="5"/><rect x="28" y="168" width="180" height="10" fill="#E4DAD1" rx="5"/><rect x="28" y="200" width="96" height="10" fill="#6B2436" rx="5"/></g><g transform="translate(830,410)"><rect x="0" y="0" width="260" height="190" fill="#FFFFFF" rx="10"/><rect x="24" y="28" width="150" height="9" fill="#ABA098" rx="5"/><rect x="24" y="64" width="110" height="9" fill="#ABA098" rx="5"/><rect x="24" y="100" width="150" height="9" fill="#ABA098" rx="5"/><rect x="24" y="136" width="110" height="9" fill="#ABA098" rx="5"/></g><rect x="0" y="0" width="1200" height="840" fill="url(#gTop)"/><rect x="0" y="0" width="1200" height="840" fill="url(#gBot)"/><rect x="0" y="0" width="1200" height="840" fill="url(#gVig)"/></svg>
