<svg xmlns="http://www.w3.org/2000/svg" viewBox="0 0 1200 840" width="1200" height="840" role="img"><defs><linearGradient id="gTop" x1="0" y1="0" x2="0" y2="1"><stop offset="0" stop-color="#FFFFFF" stop-opacity=".30"/><stop offset=".48" stop-color="#FFFFFF" stop-opacity="0"/></linearGradient><linearGradient id="gBot" x1="0" y1="0" x2="0" y2="1"><stop offset=".55" stop-color="#3A2C24" stop-opacity="0"/><stop offset="1" stop-color="#3A2C24" stop-opacity=".13"/></linearGradient><radialGradient id="gVig" cx=".5" cy=".46" r=".75"><stop offset=".62" stop-color="#3A2C24" stop-opacity="0"/><stop offset="1" stop-color="#3A2C24" stop-opacity=".10"/></radialGradient></defs><rect x="0" y="0" width="1200" height="840" fill="#EDE6DF"/><rect x="0" y="0" width="1200" height="554.4" fill="#DCD1C7"/><rect x="0" y="554.4" width="1200" height="285.6" fill="#E4DAD1"/><rect x="0" y="551.4" width="1200" height="3" fill="rgba(0,0,0,.06)"/><rect x="0" y="554.4" width="1200" height="14" fill="#9C7048"/><rect x="300" y="190" width="560" height="470" fill="#C6BDB5" rx="18"/><rect x="274" y="212" width="560" height="470" fill="#E4DAD1" rx="18"/><g transform="translate(326,170)"><rect x="0" y="0" width="560" height="470" fill="#FFFFFF" rx="18"/><rect x="200" y="-16" width="160" height="34" fill="#ABA098" rx="10"/><rect x="236" y="-8" width="88" height="18" fill="#E4DAD1" rx="6"/><rect x="50" y="84" width="460" height="70" fill="#F8F4F0" rx="12"/><rect x="50" y="180" width="460" height="70" fill="#F8F4F0" rx="12"/><rect x="50" y="276" width="460" height="70" fill="#F8F4F0" rx="12"/><rect x="50" y="372" width="460" height="70" fill="#F8F4F0" rx="12"/><rect x="76" y="104" width="30" height="30" fill="#6B2436" rx="8"/><rect x="76" y="200" width="30" height="30" fill="#6B2436" rx="8"/><rect x="76" y="296" width="30" height="30" fill="#6B2436" rx="8"/><rect x="76" y="392" width="30" height="30" fill="#E4DAD1" rx="8"/><rect x="124" y="110" width="220" height="12" fill="#ABA098" rx="6"/><rect x="124" y="206" width="160" height="12" fill="#ABA098" rx="6"/><rect x="124" y="302" width="220" height="12" fill="#ABA098" rx="6"/><rect x="124" y="398" width="160" height="12" fill="#ABA098" rx="6"/><rect x="124" y="132" width="150" height="10" fill="#E4DAD1" rx="5"/><rect x="124" y="228" width="110" height="10" fill="#E4DAD1" rx="5"/><rect x="124" y="324" width="70" height="10" fill="#E4DAD1" rx="5"/><rect x="124" y="420" width="150" height="10" fill="#E4DAD1" rx="5"/><rect x="396" y="108" width="88" height="20" fill="#E4DAD1" rx="7"/><rect x="396" y="204" width="88" height="20" fill="#E4DAD1" rx="7"/><rect x="396" y="300" width="88" height="20" fill="#E4DAD1" rx="7"/></g><rect x="0" y="0" width="1200" height="840" fill="url(#gTop)"/><rect x="0" y="0" width="1200" height="840" fill="url(#gBot)"/><rect x="0" y="0" width="1200" height="840" fill="url(#gVig)"/></svg>
