<svg xmlns="http://www.w3.org/2000/svg" viewBox="0 0 1440 780" width="1440" height="780" role="img"><defs><linearGradient id="gTop" x1="0" y1="0" x2="0" y2="1"><stop offset="0" stop-color="#FFFFFF" stop-opacity=".30"/><stop offset=".48" stop-color="#FFFFFF" stop-opacity="0"/></linearGradient><linearGradient id="gBot" x1="0" y1="0" x2="0" y2="1"><stop offset=".55" stop-color="#3A2C24" stop-opacity="0"/><stop offset="1" stop-color="#3A2C24" stop-opacity=".13"/></linearGradient><radialGradient id="gVig" cx=".5" cy=".46" r=".75"><stop offset=".62" stop-color="#3A2C24" stop-opacity="0"/><stop offset="1" stop-color="#3A2C24" stop-opacity=".10"/></radialGradient></defs><rect x="0" y="0" width="1440" height="780" fill="#EDE6DF"/><rect x="0" y="0" width="1440" height="468" fill="#DCD1C7"/><rect x="0" y="468" width="1440" height="312" fill="#E4DAD1"/><rect x="0" y="465" width="1440" height="3" fill="rgba(0,0,0,.06)"/><rect x="0" y="468" width="1440" height="16" fill="#9C7048"/><g transform="translate(130,58)"><rect x="0" y="0" width="620" height="420" fill="#332C2A" rx="22"/><rect x="20" y="20" width="580" height="380" fill="#F8F4F0" rx="14"/><rect x="66" y="290" width="64" height="40" fill="#ABA098" rx="8"/><rect x="170" y="236" width="64" height="94" fill="#ABA098" rx="8"/><rect x="274" y="182" width="64" height="148" fill="#ABA098" rx="8"/><rect x="378" y="128" width="64" height="202" fill="#ABA098" rx="8"/><rect x="482" y="74" width="64" height="256" fill="#6B2436" rx="8"/></g><g transform="translate(860,258)"><rect x="0" y="0" width="170" height="210" fill="#D0C4B9"/><rect x="0" y="0" width="170" height="32" fill="#6B2436"/><rect x="28" y="62" width="114" height="114" fill="#F8F4F0" rx="4"/></g><g transform="translate(1110,258)"><rect x="0" y="0" width="170" height="210" fill="#D0C4B9"/><rect x="0" y="0" width="170" height="32" fill="#8C3A4C"/><rect x="28" y="62" width="114" height="114" fill="#F8F4F0" rx="4"/></g><path d="M1052,340 L1084,340 L1084,324 L1116,352 L1084,380 L1084,364 L1052,364 Z" fill="#6B2436"/><rect x="0" y="0" width="1440" height="780" fill="url(#gTop)"/><rect x="0" y="0" width="1440" height="780" fill="url(#gBot)"/><rect x="0" y="0" width="1440" height="780" fill="url(#gVig)"/></svg>
