<svg xmlns="http://www.w3.org/2000/svg" viewBox="0 0 1440 900" width="1440" height="900" role="img"><rect x="0" y="0" width="1440" height="900" fill="#EDE6DF"/><rect x="0" y="0" width="1440" height="396" fill="#DCD1C7"/><rect x="0" y="396" width="1440" height="504" fill="#E4DAD1"/><rect x="0" y="393" width="1440" height="3" fill="rgba(0,0,0,.06)"/><rect x="0" y="396" width="1440" height="27" fill="#9C7048"/><g transform="translate(150,300)"><rect x="0" y="0" width="300" height="400" fill="#332C2A" rx="20"/><rect x="24" y="26" width="252" height="96" fill="#E8C79A" rx="8"/><rect x="24" y="150" width="72" height="44" fill="#574D49" rx="7"/><rect x="112" y="150" width="72" height="44" fill="#574D49" rx="7"/><rect x="200" y="150" width="72" height="44" fill="#574D49" rx="7"/><rect x="24" y="210" width="72" height="44" fill="#574D49" rx="7"/><rect x="112" y="210" width="72" height="44" fill="#574D49" rx="7"/><rect x="200" y="210" width="72" height="44" fill="#574D49" rx="7"/><rect x="24" y="270" width="72" height="44" fill="#574D49" rx="7"/><rect x="112" y="270" width="72" height="44" fill="#574D49" rx="7"/><rect x="200" y="270" width="72" height="44" fill="#574D49" rx="7"/><rect x="24" y="330" width="72" height="44" fill="#574D49" rx="7"/><rect x="112" y="330" width="72" height="44" fill="#574D49" rx="7"/><rect x="200" y="330" width="72" height="44" fill="#6B2436" rx="7"/></g><g transform="translate(560,320)"><rect x="0" y="0" width="520" height="340" fill="#F8F4F0" rx="14"/><rect x="0" y="0" width="520" height="44" fill="#C6BDB5" rx="14"/><rect x="40" y="90" width="260" height="16" fill="#ABA098" rx="6"/><rect x="40" y="138" width="170" height="16" fill="#ABA098" rx="6"/><rect x="40" y="186" width="260" height="16" fill="#ABA098" rx="6"/><rect x="40" y="234" width="170" height="16" fill="#ABA098" rx="6"/><rect x="40" y="282" width="260" height="16" fill="#ABA098" rx="6"/><rect x="370" y="90" width="110" height="16" fill="#E4DAD1" rx="6"/><rect x="370" y="138" width="110" height="16" fill="#E4DAD1" rx="6"/><rect x="370" y="186" width="110" height="16" fill="#E4DAD1" rx="6"/><rect x="370" y="234" width="110" height="16" fill="#E4DAD1" rx="6"/><rect x="370" y="282" width="110" height="16" fill="#6B2436" rx="6"/></g><ellipse cx="1220" cy="690" rx="46" ry="16" fill="#9C7048"/><ellipse cx="1280" cy="674" rx="46" ry="16" fill="#B98A57"/><ellipse cx="1340" cy="658" rx="46" ry="16" fill="#9C7048"/></svg>
