<svg xmlns="http://www.w3.org/2000/svg" viewBox="0 0 1200 900" width="1200" height="900" role="img"><rect x="0" y="0" width="1200" height="900" fill="#F7F8FA"/><rect x="0" y="0" width="1200" height="640" fill="#F1F2F6"/><rect x="0" y="640" width="1200" height="260" fill="#DCDFE7"/><rect x="0" y="637" width="1200" height="3" fill="rgba(0,0,0,.06)"/><g transform="translate(680,250)"><rect x="0" y="0" width="470" height="250" fill="#B7BCC8" rx="4"/><rect x="4" y="4" width="462" height="130" fill="#FFFFFF" rx="3"/><rect x="4" y="4" width="462" height="130" fill="rgba(255,255,255,.55)" rx="3"/><rect x="10" y="108" width="450" height="22" fill="#EDEFF4" rx="2"/><rect x="20" y="90" width="135.33333333333334" height="18" fill="#FFFFFF" rx="3"/><rect x="163.33333333333334" y="90" width="135.33333333333334" height="18" fill="#FFFFFF" rx="3"/><rect x="306.6666666666667" y="90" width="135.33333333333334" height="18" fill="#FFFFFF" rx="3"/><ellipse cx="87.66666666666667" cy="90" rx="61.66666666666667" ry="6" fill="#B04A52"/><ellipse cx="231" cy="90" rx="61.66666666666667" ry="6" fill="#CE757E"/><ellipse cx="374.33333333333337" cy="90" rx="61.66666666666667" ry="6" fill="#B04A52"/><rect x="0" y="138" width="470" height="6" fill="#969CAA"/><rect x="0" y="144" width="470" height="106" fill="#CFD3DC"/><path d="M37.6,4 L141,4 L56.4,134 L-37.6,134 Z" fill="rgba(255,255,255,.45)"/><rect x="291.4" y="144" width="178.6" height="106" fill="rgba(58,44,36,.10)"/><rect x="0" y="243" width="470" height="7" fill="rgba(58,44,36,.14)"/></g><ellipse cx="330" cy="642" rx="74" ry="11.84" fill="rgba(51,44,42,.13)"/><g transform="translate(330,640) scale(1.2666666666666666)"><path d="M-36,-130 L-32,-6 L-4,-6 L-4,-130 Z" fill="#2A2A31"/><path d="M4,-130 L4,-6 L32,-6 L36,-130 Z" fill="#2A2A31"/><rect x="-38" y="-8" width="38" height="8" fill="#2A2A31"/><rect x="2" y="-8" width="38" height="8" fill="#2A2A31"/><path d="M-44,-222 C-44,-246 -22,-256 0,-256 C22,-256 44,-246 44,-222 L48,-120 L-48,-120 Z" fill="#FFFFFF"/><path d="M-46,-212 L-56,-168 L-8,-152 L44,-160 L48,-178 L0,-176 L-30,-190 Z" fill="#FFFFFF"/><rect x="-11" y="-272" width="22" height="22" fill="#55555F"/><circle cx="0" cy="-286" r="27" fill="#55555F"/><path d="M-30,-244 L30,-244 L38,-126 L-38,-126 Z" fill="#6B2436"/><path d="M-18,-250 L-12,-236 L12,-236 L18,-250 L6,-252 L0,-242 L-6,-252 Z" fill="#6B2436"/><path d="M10,-256 C26,-254 44,-244 44,-222 L48,-120 L38,-126 L30,-244 Z" fill="rgba(58,44,36,.13)"/><path d="M12,-130 L12,-6 L32,-6 L36,-130 Z" fill="rgba(58,44,36,.10)"/><ellipse cx="0" cy="-262" rx="13" ry="5" fill="rgba(58,44,36,.16)"/></g><g transform="translate(60,560)"><rect x="0" y="0" width="560" height="20" fill="#C9955F" rx="4"/><rect x="6" y="20" width="548" height="320" fill="#A87749"/></g><g transform="translate(420,560)"><rect x="0" y="-130" width="150" height="108" fill="#2A2A31" rx="8"/><rect x="10" y="-120" width="130" height="76" fill="#F2D9AE" rx="4"/><rect x="36" y="-22" width="78" height="12" fill="#55555F" rx="4"/></g><g transform="translate(130,560)"><rect x="0" y="-34" width="180" height="34" fill="#FFFFFF" rx="4"/><rect x="16" y="-24" width="120" height="7" fill="#B7BCC8" rx="3"/><rect x="16" y="-12" width="80" height="7" fill="#B7BCC8" rx="3"/></g></svg>
