<svg xmlns="http://www.w3.org/2000/svg" viewBox="0 0 900 1200" width="900" height="1200" role="img"><rect x="0" y="0" width="900" height="1200" fill="#F7F8FA"/><rect x="0" y="0" width="900" height="1000" fill="#F1F2F6"/><rect x="0" y="1000" width="900" height="200" fill="#DCDFE7"/><rect x="0" y="997" width="900" height="3" fill="rgba(0,0,0,.06)"/><g transform="translate(20,210)"><rect x="0" y="0" width="560" height="330" fill="#B7BCC8" rx="4"/><rect x="4" y="4" width="552" height="171.6" fill="#FFFFFF" rx="3"/><rect x="4" y="4" width="552" height="171.6" fill="rgba(255,255,255,.55)" rx="3"/><rect x="10" y="149.6" width="540" height="22" fill="#EDEFF4" rx="2"/><rect x="20" y="131.6" width="165.33333333333334" height="18" fill="#FFFFFF" rx="3"/><rect x="193.33333333333334" y="131.6" width="165.33333333333334" height="18" fill="#FFFFFF" rx="3"/><rect x="366.6666666666667" y="131.6" width="165.33333333333334" height="18" fill="#FFFFFF" rx="3"/><ellipse cx="102.66666666666667" cy="131.6" rx="76.66666666666667" ry="6" fill="#B04A52"/><ellipse cx="276" cy="131.6" rx="76.66666666666667" ry="6" fill="#CE757E"/><ellipse cx="449.33333333333337" cy="131.6" rx="76.66666666666667" ry="6" fill="#B04A52"/><rect x="0" y="179.6" width="560" height="6" fill="#969CAA"/><rect x="0" y="185.6" width="560" height="144.4" fill="#CFD3DC"/><path d="M44.800000000000004,4 L168,4 L67.2,175.6 L-44.8,175.6 Z" fill="rgba(255,255,255,.45)"/><rect x="347.2" y="185.6" width="212.8" height="144.4" fill="rgba(58,44,36,.10)"/><rect x="0" y="323" width="560" height="7" fill="rgba(58,44,36,.14)"/></g><g transform="translate(740,30)"><rect x="-2" y="0" width="4" height="300" fill="#9A9AA5"/><path d="M-78,300 L78,300 L35.1,362.4 L-35.1,362.4 Z" fill="#2A2A31"/><ellipse cx="0" cy="362.4" rx="39" ry="17.16" fill="#F2D9AE"/></g><ellipse cx="330" cy="1002" rx="96" ry="15.36" fill="rgba(51,44,42,.13)"/><g transform="translate(330,1000) scale(2.3333333333333335)"><path d="M-36,-130 L-32,-6 L-4,-6 L-4,-130 Z" fill="#2A2A31"/><path d="M4,-130 L4,-6 L32,-6 L36,-130 Z" fill="#2A2A31"/><rect x="-38" y="-8" width="38" height="8" fill="#2A2A31"/><rect x="2" y="-8" width="38" height="8" fill="#2A2A31"/><path d="M-44,-222 C-44,-246 -22,-256 0,-256 C22,-256 44,-246 44,-222 L48,-120 L-48,-120 Z" fill="#FFFFFF"/><path d="M-46,-212 L-56,-168 L-8,-152 L44,-160 L48,-178 L0,-176 L-30,-190 Z" fill="#FFFFFF"/><rect x="-11" y="-272" width="22" height="22" fill="#55555F"/><circle cx="0" cy="-286" r="27" fill="#55555F"/><path d="M-30,-244 L30,-244 L38,-126 L-38,-126 Z" fill="#6B2436"/><path d="M-18,-250 L-12,-236 L12,-236 L18,-250 L6,-252 L0,-242 L-6,-252 Z" fill="#6B2436"/><path d="M10,-256 C26,-254 44,-244 44,-222 L48,-120 L38,-126 L30,-244 Z" fill="rgba(58,44,36,.13)"/><path d="M12,-130 L12,-6 L32,-6 L36,-130 Z" fill="rgba(58,44,36,.10)"/><ellipse cx="0" cy="-262" rx="13" ry="5" fill="rgba(58,44,36,.16)"/></g><g transform="translate(0,820)"><rect x="0" y="0" width="900" height="20" fill="#C9955F" rx="4"/><rect x="6" y="20" width="888" height="360" fill="#A87749"/></g><rect x="560" y="762" width="250" height="32" fill="#FFFFFF" rx="6"/><rect x="574" y="780" width="250" height="32" fill="#FFFFFF" rx="6"/><rect x="588" y="798" width="250" height="32" fill="#FFFFFF" rx="6"/><g transform="translate(120,734)"><rect x="0" y="0" width="120" height="86" fill="#2A2A31" rx="8"/><rect x="12" y="10" width="96" height="30" fill="#F2D9AE" rx="4"/><rect x="14" y="50" width="26" height="12" fill="#55555F" rx="3"/><rect x="48" y="50" width="26" height="12" fill="#55555F" rx="3"/><rect x="82" y="50" width="26" height="12" fill="#55555F" rx="3"/><rect x="14" y="68" width="26" height="12" fill="#55555F" rx="3"/><rect x="48" y="68" width="26" height="12" fill="#55555F" rx="3"/><rect x="82" y="68" width="26" height="12" fill="#6B2436" rx="3"/></g></svg>
